<svg width="1485" height="503" viewBox="0 0 1485 503" fill="none" xmlns="http://www.w3.org/2000/svg">
<g filter="url(#filter0_dd_0_1)">
<mask id="path-1-outside-1_0_1" maskUnits="userSpaceOnUse" x="3" y="-3" width="1479" height="501" fill="black">
<rect fill="white" x="3" y="-3" width="1479" height="501"/>
<path d="M537.868 128.16L522.028 159.84L505.708 192H470.188L566.188 -2.86102e-06L630.268 128.16H594.268L566.188 71.76L537.868 128.16ZM646.108 160.08L662.188 192H626.428L610.588 160.08H646.108ZM766.946 112.08H719.186C703.586 112.08 690.386 106.56 679.586 95.76C668.786 84.72 663.266 71.52 663.266 55.92C663.266 40.56 668.786 27.6 679.586 16.56C690.386 5.52 703.586 -2.86102e-06 719.186 -2.86102e-06V32.16C715.826 32.16 712.706 32.64 709.826 33.84C706.706 35.04 704.306 36.72 701.906 39.12C699.746 41.28 698.066 43.92 696.866 46.8C695.666 49.68 695.186 52.8 695.186 55.92C695.186 62.64 697.346 68.16 701.906 72.96C706.706 77.76 712.226 80.16 719.186 80.16H766.946C782.546 80.16 795.746 85.68 806.546 96.48C817.586 107.52 823.106 120.72 823.106 136.08C823.106 151.44 817.586 164.64 806.546 175.68C795.746 186.48 782.546 192 766.946 192V159.84C770.306 159.84 773.426 159.36 776.306 158.16C779.426 156.96 782.066 155.28 784.226 153.12C786.386 150.96 788.066 148.56 789.266 145.44C790.466 142.56 791.186 139.44 791.186 136.08C791.186 129.6 788.546 124.08 783.986 119.28C779.186 114.48 773.666 112.08 766.946 112.08ZM947.842 159.84H1043.84V192H915.922L947.842 159.84ZM915.922 -2.86102e-06H947.842V5.27999V116.4L915.922 148.56V5.27999V-2.86102e-06ZM100.32 495C73.4403 495 50.8803 485.88 32.1603 467.16C13.2003 448.2 4.08031 425.4 4.32031 399C4.56031 372.6 13.4403 349.8 32.4003 331.08C51.1203 312.12 73.9203 303 100.32 303C126.96 303 149.52 312.12 168.24 331.08C186.96 349.8 196.32 372.36 196.32 399C196.32 420.12 190.56 438.6 178.56 454.92L155.28 431.64C161.28 422.04 164.4 411 164.4 398.76C164.4 381.24 157.92 366.12 145.68 353.64C133.2 341.4 118.08 334.68 100.32 334.68C82.5603 334.68 67.4403 341.4 54.9603 353.64C42.7203 366.12 36.2403 381.24 36.2403 398.76C36.2403 416.76 42.7203 431.88 54.9603 444.36C67.4403 456.6 82.5603 462.84 100.32 462.84C112.32 462.84 123.12 459.96 132.72 454.2L156 477.48C139.92 489.24 121.44 495 100.32 495ZM423.1 415.08H455.02C455.02 437.16 447.34 456.12 431.5 471.72C415.9 487.32 396.7 495 374.86 495C353.02 495 334.06 487.32 318.46 471.72C302.86 456.12 295.18 436.92 295.18 415.08V303H327.1V415.08C327.1 428.28 331.66 439.56 340.78 448.68C350.14 458.28 361.66 462.84 374.86 462.84C388.06 462.84 399.34 458.04 408.7 448.68C418.06 439.32 423.1 428.04 423.1 415.08ZM570.563 431.16L554.723 462.84L538.403 495H502.883L598.883 303L662.963 431.16H626.963L598.883 374.76L570.563 431.16ZM678.803 463.08L694.883 495H659.123L643.283 463.08H678.803ZM814.032 303H845.952V494.52V494.76V495L686.352 351.48V303L814.032 417.96V303ZM942.758 303H1038.76V335.16H974.918V495H942.758V335.16V303ZM1253.02 415.08H1284.94C1284.94 437.16 1277.26 456.12 1261.42 471.72C1245.82 487.32 1226.62 495 1204.78 495C1182.94 495 1163.98 487.32 1148.38 471.72C1132.78 456.12 1125.1 436.92 1125.1 415.08V303H1157.02V415.08C1157.02 428.28 1161.58 439.56 1170.7 448.68C1180.06 458.28 1191.58 462.84 1204.78 462.84C1217.98 462.84 1229.26 458.04 1238.62 448.68C1247.98 439.32 1253.02 428.04 1253.02 415.08ZM1288.7 347.64V303L1384.94 399L1480.94 303V495H1449.26V380.28L1384.94 444.36L1288.7 347.64Z"/>
</mask>
<path d="M537.868 128.16L522.028 159.84L505.708 192H470.188L566.188 -2.86102e-06L630.268 128.16H594.268L566.188 71.76L537.868 128.16ZM646.108 160.08L662.188 192H626.428L610.588 160.08H646.108ZM766.946 112.08H719.186C703.586 112.08 690.386 106.56 679.586 95.76C668.786 84.72 663.266 71.52 663.266 55.92C663.266 40.56 668.786 27.6 679.586 16.56C690.386 5.52 703.586 -2.86102e-06 719.186 -2.86102e-06V32.16C715.826 32.16 712.706 32.64 709.826 33.84C706.706 35.04 704.306 36.72 701.906 39.12C699.746 41.28 698.066 43.92 696.866 46.8C695.666 49.68 695.186 52.8 695.186 55.92C695.186 62.64 697.346 68.16 701.906 72.96C706.706 77.76 712.226 80.16 719.186 80.16H766.946C782.546 80.16 795.746 85.68 806.546 96.48C817.586 107.52 823.106 120.72 823.106 136.08C823.106 151.44 817.586 164.64 806.546 175.68C795.746 186.48 782.546 192 766.946 192V159.84C770.306 159.84 773.426 159.36 776.306 158.16C779.426 156.96 782.066 155.28 784.226 153.12C786.386 150.96 788.066 148.56 789.266 145.44C790.466 142.56 791.186 139.44 791.186 136.08C791.186 129.6 788.546 124.08 783.986 119.28C779.186 114.48 773.666 112.08 766.946 112.08ZM947.842 159.84H1043.84V192H915.922L947.842 159.84ZM915.922 -2.86102e-06H947.842V5.27999V116.4L915.922 148.56V5.27999V-2.86102e-06ZM100.32 495C73.4403 495 50.8803 485.88 32.1603 467.16C13.2003 448.2 4.08031 425.4 4.32031 399C4.56031 372.6 13.4403 349.8 32.4003 331.08C51.1203 312.12 73.9203 303 100.32 303C126.96 303 149.52 312.12 168.24 331.08C186.96 349.8 196.32 372.36 196.32 399C196.32 420.12 190.56 438.6 178.56 454.92L155.28 431.64C161.28 422.04 164.4 411 164.4 398.76C164.4 381.24 157.92 366.12 145.68 353.64C133.2 341.4 118.08 334.68 100.32 334.68C82.5603 334.68 67.4403 341.4 54.9603 353.64C42.7203 366.12 36.2403 381.24 36.2403 398.76C36.2403 416.76 42.7203 431.88 54.9603 444.36C67.4403 456.6 82.5603 462.84 100.32 462.84C112.32 462.84 123.12 459.96 132.72 454.2L156 477.48C139.92 489.24 121.44 495 100.32 495ZM423.1 415.08H455.02C455.02 437.16 447.34 456.12 431.5 471.72C415.9 487.32 396.7 495 374.86 495C353.02 495 334.06 487.32 318.46 471.72C302.86 456.12 295.18 436.92 295.18 415.08V303H327.1V415.08C327.1 428.28 331.66 439.56 340.78 448.68C350.14 458.28 361.66 462.84 374.86 462.84C388.06 462.84 399.34 458.04 408.7 448.68C418.06 439.32 423.1 428.04 423.1 415.08ZM570.563 431.16L554.723 462.84L538.403 495H502.883L598.883 303L662.963 431.16H626.963L598.883 374.76L570.563 431.16ZM678.803 463.08L694.883 495H659.123L643.283 463.08H678.803ZM814.032 303H845.952V494.52V494.76V495L686.352 351.48V303L814.032 417.96V303ZM942.758 303H1038.76V335.16H974.918V495H942.758V335.16V303ZM1253.02 415.08H1284.94C1284.94 437.16 1277.26 456.12 1261.42 471.72C1245.82 487.32 1226.62 495 1204.78 495C1182.94 495 1163.98 487.32 1148.38 471.72C1132.78 456.12 1125.1 436.92 1125.1 415.08V303H1157.02V415.08C1157.02 428.28 1161.58 439.56 1170.7 448.68C1180.06 458.28 1191.58 462.84 1204.78 462.84C1217.98 462.84 1229.26 458.04 1238.62 448.68C1247.98 439.32 1253.02 428.04 1253.02 415.08ZM1288.7 347.64V303L1384.94 399L1480.94 303V495H1449.26V380.28L1384.94 444.36L1288.7 347.64Z" fill="url(#paint0_diamond_0_1)" shape-rendering="crispEdges"/>
<path d="M537.868 128.16L536.974 127.711L536.973 127.713L537.868 128.16ZM522.028 159.84L522.919 160.293L522.922 160.287L522.028 159.84ZM505.708 192V193H506.321L506.599 192.453L505.708 192ZM470.188 192L469.293 191.553L468.569 193H470.188V192ZM566.188 -2.86102e-06L567.082 -0.447216L566.188 -2.23607L565.293 -0.447216L566.188 -2.86102e-06ZM630.268 128.16V129.16H631.886L631.162 127.713L630.268 128.16ZM594.268 128.16L593.372 128.606L593.648 129.16H594.268V128.16ZM566.188 71.76L567.083 71.3143L566.191 69.5239L565.294 71.3113L566.188 71.76ZM646.108 160.08L647.001 159.63L646.723 159.08H646.108V160.08ZM662.188 192V193H663.811L663.081 191.55L662.188 192ZM626.428 192L625.532 192.445L625.807 193H626.428V192ZM610.588 160.08V159.08H608.975L609.692 160.525L610.588 160.08ZM536.973 127.713L521.133 159.393L522.922 160.287L538.762 128.607L536.973 127.713ZM521.136 159.387L504.816 191.547L506.599 192.453L522.919 160.293L521.136 159.387ZM505.708 191H470.188V193H505.708V191ZM471.082 192.447L567.082 0.447211L565.293 -0.447216L469.293 191.553L471.082 192.447ZM565.293 0.447211L629.373 128.607L631.162 127.713L567.082 -0.447216L565.293 0.447211ZM630.268 127.16H594.268V129.16H630.268V127.16ZM595.163 127.714L567.083 71.3143L565.292 72.2057L593.372 128.606L595.163 127.714ZM565.294 71.3113L536.974 127.711L538.761 128.609L567.081 72.2087L565.294 71.3113ZM645.214 160.53L661.294 192.45L663.081 191.55L647.001 159.63L645.214 160.53ZM662.188 191H626.428V193H662.188V191ZM627.323 191.555L611.483 159.635L609.692 160.525L625.532 192.445L627.323 191.555ZM610.588 161.08H646.108V159.08H610.588V161.08ZM679.586 95.76L678.871 96.4593L678.879 96.4671L679.586 95.76ZM679.586 16.56L680.3 17.2593L680.3 17.2593L679.586 16.56ZM719.186 -2.86102e-06H720.186V-1H719.186V-2.86102e-06ZM719.186 32.16V33.16H720.186V32.16H719.186ZM709.826 33.84L710.185 34.7733L710.197 34.7684L710.21 34.7631L709.826 33.84ZM696.866 46.8L697.789 47.1846L697.789 47.1846L696.866 46.8ZM701.906 72.96L701.181 73.6487L701.189 73.658L701.199 73.6671L701.906 72.96ZM806.546 96.48L805.839 97.1871L805.839 97.1871L806.546 96.48ZM806.546 175.68L805.839 174.973L805.839 174.973L806.546 175.68ZM766.946 192H765.946V193H766.946V192ZM766.946 159.84V158.84H765.946V159.84H766.946ZM776.306 158.16L775.947 157.227L775.934 157.232L775.921 157.237L776.306 158.16ZM784.226 153.12L783.519 152.413L783.519 152.413L784.226 153.12ZM789.266 145.44L788.343 145.055L788.337 145.068L788.332 145.081L789.266 145.44ZM783.986 119.28L784.711 118.591L784.702 118.582L784.693 118.573L783.986 119.28ZM766.946 111.08H719.186V113.08H766.946V111.08ZM719.186 111.08C703.85 111.08 690.905 105.665 680.293 95.0529L678.879 96.4671C689.867 107.455 703.321 113.08 719.186 113.08V111.08ZM680.3 95.0607C669.68 84.204 664.266 71.2537 664.266 55.92H662.266C662.266 71.7863 667.891 85.2359 678.871 96.4593L680.3 95.0607ZM664.266 55.92C664.266 40.8331 669.675 28.121 680.3 17.2593L678.871 15.8607C667.896 27.079 662.266 40.2868 662.266 55.92H664.266ZM680.3 17.2593C690.91 6.41378 703.852 0.999997 719.186 0.999997V-1C703.32 -1 689.861 4.62622 678.871 15.8607L680.3 17.2593ZM718.186 -2.86102e-06V32.16H720.186V-2.86102e-06H718.186ZM719.186 31.16C715.731 31.16 712.473 31.6534 709.441 32.9169L710.21 34.7631C712.938 33.6266 715.92 33.16 719.186 33.16V31.16ZM709.467 32.9066C706.195 34.1649 703.68 35.9311 701.199 38.4129L702.613 39.8271C704.931 37.5089 707.216 35.9151 710.185 34.7733L709.467 32.9066ZM701.199 38.4129C698.934 40.6772 697.186 43.4315 695.943 46.4154L697.789 47.1846C698.945 44.4085 700.557 41.8827 702.613 39.8271L701.199 38.4129ZM695.943 46.4154C694.681 49.4441 694.186 52.7006 694.186 55.92H696.186C696.186 52.8994 696.651 49.9158 697.789 47.1846L695.943 46.4154ZM694.186 55.92C694.186 62.8893 696.439 68.6578 701.181 73.6487L702.631 72.2712C698.252 67.6622 696.186 62.3907 696.186 55.92H694.186ZM701.199 73.6671C706.18 78.6487 711.952 81.16 719.186 81.16V79.16C712.499 79.16 707.231 76.8713 702.613 72.2529L701.199 73.6671ZM719.186 81.16H766.946V79.16H719.186V81.16ZM766.946 81.16C782.281 81.16 795.227 86.5751 805.839 97.1871L807.253 95.7729C796.265 84.7848 782.81 79.16 766.946 79.16V81.16ZM805.839 97.1871C816.694 108.043 822.106 120.99 822.106 136.08H824.106C824.106 120.45 818.477 106.997 807.253 95.7729L805.839 97.1871ZM822.106 136.08C822.106 151.17 816.694 164.117 805.839 174.973L807.253 176.387C818.477 165.163 824.106 151.71 824.106 136.08H822.106ZM805.839 174.973C795.227 185.585 782.281 191 766.946 191V193C782.81 193 796.265 187.375 807.253 176.387L805.839 174.973ZM767.946 192V159.84H765.946V192H767.946ZM766.946 160.84C770.4 160.84 773.658 160.347 776.69 159.083L775.921 157.237C773.193 158.373 770.211 158.84 766.946 158.84V160.84ZM776.665 159.093C779.903 157.848 782.665 156.095 784.933 153.827L783.519 152.413C781.466 154.465 778.948 156.072 775.947 157.227L776.665 159.093ZM784.933 153.827C787.18 151.58 788.943 149.064 790.199 145.799L788.332 145.081C787.188 148.056 785.591 150.34 783.519 152.413L784.933 153.827ZM790.189 145.825C791.434 142.837 792.186 139.587 792.186 136.08H790.186C790.186 139.293 789.498 142.283 788.343 145.055L790.189 145.825ZM792.186 136.08C792.186 129.295 789.411 123.539 784.711 118.591L783.261 119.969C787.681 124.621 790.186 129.905 790.186 136.08H792.186ZM784.693 118.573C779.715 113.595 773.945 111.08 766.946 111.08V113.08C773.387 113.08 778.656 115.365 783.279 119.987L784.693 118.573ZM947.842 159.84V158.84H947.425L947.132 159.136L947.842 159.84ZM1043.84 159.84H1044.84V158.84H1043.84V159.84ZM1043.84 192V193H1044.84V192H1043.84ZM915.922 192L915.212 191.296L913.52 193H915.922V192ZM915.922 -2.86102e-06V-1H914.922V-2.86102e-06H915.922ZM947.842 -2.86102e-06H948.842V-1H947.842V-2.86102e-06ZM947.842 116.4L948.552 117.104L948.842 116.812V116.4H947.842ZM915.922 148.56H914.922V150.987L916.632 149.264L915.922 148.56ZM947.842 160.84H1043.84V158.84H947.842V160.84ZM1042.84 159.84V192H1044.84V159.84H1042.84ZM1043.84 191H915.922V193H1043.84V191ZM916.632 192.704L948.552 160.544L947.132 159.136L915.212 191.296L916.632 192.704ZM915.922 0.999997H947.842V-1H915.922V0.999997ZM946.842 -2.86102e-06V5.27999H948.842V-2.86102e-06H946.842ZM946.842 5.27999V116.4H948.842V5.27999H946.842ZM947.132 115.696L915.212 147.856L916.632 149.264L948.552 117.104L947.132 115.696ZM916.922 148.56V5.27999H914.922V148.56H916.922ZM916.922 5.27999V-2.86102e-06H914.922V5.27999H916.922ZM4.32031 399L5.32027 399.009L4.32031 399ZM32.4003 331.08L33.103 331.792L33.1119 331.783L32.4003 331.08ZM168.24 331.08L167.529 331.783L167.533 331.787L168.24 331.08ZM178.56 454.92L177.853 455.627L178.676 456.45L179.366 455.512L178.56 454.92ZM155.28 431.64L154.432 431.11L154.011 431.785L154.573 432.347L155.28 431.64ZM145.68 353.64L146.394 352.94L146.387 352.933L146.381 352.926L145.68 353.64ZM54.9603 353.64L54.2601 352.926L54.2532 352.933L54.2464 352.94L54.9603 353.64ZM54.9603 444.36L54.2464 445.06L54.2532 445.067L54.2601 445.074L54.9603 444.36ZM132.72 454.2L133.427 453.493L132.875 452.941L132.206 453.343L132.72 454.2ZM156 477.48L156.591 478.287L157.533 477.598L156.707 476.773L156 477.48ZM100.32 494C73.6971 494 51.394 484.979 32.8674 466.453L31.4532 467.867C50.3666 486.781 73.1836 496 100.32 496V494ZM32.8674 466.453C14.0994 447.685 5.08268 425.144 5.32027 399.009L3.32035 398.991C3.07794 425.656 12.3012 448.715 31.4532 467.867L32.8674 466.453ZM5.32027 399.009C5.55805 372.853 14.3446 350.312 33.1029 331.792L31.6977 330.368C12.536 349.288 3.56258 372.347 3.32035 398.991L5.32027 399.009ZM33.1119 331.783C51.6372 313.02 74.1779 304 100.32 304V302C73.6627 302 50.6034 311.22 31.6887 330.377L33.1119 331.783ZM100.32 304C126.701 304 149.002 313.019 167.529 331.783L168.952 330.377C150.038 311.221 127.219 302 100.32 302V304ZM167.533 331.787C186.065 350.319 195.32 372.625 195.32 399H197.32C197.32 372.095 187.855 349.281 168.947 330.373L167.533 331.787ZM195.32 399C195.32 419.922 189.62 438.191 177.755 454.328L179.366 455.512C191.501 439.009 197.32 420.318 197.32 399H195.32ZM179.267 454.213L155.987 430.933L154.573 432.347L177.853 455.627L179.267 454.213ZM156.128 432.17C162.233 422.402 165.4 411.177 165.4 398.76H163.4C163.4 410.823 160.328 421.678 154.432 431.11L156.128 432.17ZM165.4 398.76C165.4 380.966 158.809 365.598 146.394 352.94L144.966 354.34C157.032 366.642 163.4 381.514 163.4 398.76H165.4ZM146.381 352.926C133.728 340.517 118.362 333.68 100.32 333.68V335.68C117.799 335.68 132.673 342.283 144.98 354.354L146.381 352.926ZM100.32 333.68C82.2791 333.68 66.9127 340.517 54.2601 352.926L55.6605 354.354C67.9679 342.283 82.8416 335.68 100.32 335.68V333.68ZM54.2464 352.94C41.8315 365.598 35.2403 380.966 35.2403 398.76H37.2403C37.2403 381.514 43.6091 366.642 55.6743 354.34L54.2464 352.94ZM35.2403 398.76C35.2403 417.03 41.8287 432.399 54.2464 445.06L55.6743 443.66C43.612 431.361 37.2403 416.49 37.2403 398.76H35.2403ZM54.2601 445.074C66.9269 457.497 82.2982 463.84 100.32 463.84V461.84C82.8224 461.84 67.9537 455.703 55.6605 443.646L54.2601 445.074ZM100.32 463.84C112.488 463.84 123.468 460.917 133.235 455.057L132.206 453.343C122.772 459.003 112.153 461.84 100.32 461.84V463.84ZM132.013 454.907L155.293 478.187L156.707 476.773L133.427 453.493L132.013 454.907ZM155.41 476.673C139.514 488.298 121.245 494 100.32 494V496C121.636 496 140.326 490.182 156.591 478.287L155.41 476.673ZM423.1 415.08V414.08H422.1V415.08H423.1ZM455.02 415.08H456.02V414.08H455.02V415.08ZM431.5 471.72L430.798 471.007L430.793 471.013L431.5 471.72ZM318.46 471.72L319.167 471.013L319.167 471.013L318.46 471.72ZM295.18 303V302H294.18V303H295.18ZM327.1 303H328.1V302H327.1V303ZM340.78 448.68L341.496 447.982L341.487 447.973L340.78 448.68ZM408.7 448.68L409.407 449.387L409.407 449.387L408.7 448.68ZM423.1 416.08H455.02V414.08H423.1V416.08ZM454.02 415.08C454.02 436.9 446.442 455.601 430.798 471.008L432.201 472.432C448.237 456.639 456.02 437.42 456.02 415.08H454.02ZM430.793 471.013C415.385 486.42 396.442 494 374.86 494V496C396.957 496 416.414 488.22 432.207 472.427L430.793 471.013ZM374.86 494C353.281 494 334.576 486.422 319.167 471.013L317.753 472.427C333.543 488.218 352.759 496 374.86 496V494ZM319.167 471.013C303.76 455.606 296.18 436.662 296.18 415.08H294.18C294.18 437.178 301.96 456.634 317.753 472.427L319.167 471.013ZM296.18 415.08V303H294.18V415.08H296.18ZM295.18 304H327.1V302H295.18V304ZM326.1 303V415.08H328.1V303H326.1ZM326.1 415.08C326.1 428.536 330.758 440.073 340.073 449.387L341.487 447.973C332.561 439.047 328.1 428.024 328.1 415.08H326.1ZM340.064 449.378C349.621 459.181 361.404 463.84 374.86 463.84V461.84C361.915 461.84 350.658 457.379 341.496 447.982L340.064 449.378ZM374.86 463.84C388.332 463.84 399.865 458.929 409.407 449.387L407.993 447.973C398.815 457.151 387.787 461.84 374.86 461.84V463.84ZM409.407 449.387C418.938 439.856 424.1 428.328 424.1 415.08H422.1C422.1 427.752 417.182 438.784 407.993 447.973L409.407 449.387ZM570.563 431.16L569.669 430.711L569.668 430.713L570.563 431.16ZM554.723 462.84L555.615 463.293L555.617 463.287L554.723 462.84ZM538.403 495V496H539.017L539.295 495.453L538.403 495ZM502.883 495L501.988 494.553L501.265 496H502.883V495ZM598.883 303L599.777 302.553L598.883 300.764L597.988 302.553L598.883 303ZM662.963 431.16V432.16H664.581L663.857 430.713L662.963 431.16ZM626.963 431.16L626.068 431.606L626.344 432.16H626.963V431.16ZM598.883 374.76L599.778 374.314L598.887 372.524L597.989 374.311L598.883 374.76ZM678.803 463.08L679.696 462.63L679.419 462.08H678.803V463.08ZM694.883 495V496H696.506L695.776 494.55L694.883 495ZM659.123 495L658.227 495.445L658.503 496H659.123V495ZM643.283 463.08V462.08H641.67L642.387 463.525L643.283 463.08ZM569.668 430.713L553.828 462.393L555.617 463.287L571.457 431.607L569.668 430.713ZM553.831 462.387L537.511 494.547L539.295 495.453L555.615 463.293L553.831 462.387ZM538.403 494H502.883V496H538.403V494ZM503.777 495.447L599.777 303.447L597.988 302.553L501.988 494.553L503.777 495.447ZM597.988 303.447L662.068 431.607L663.857 430.713L599.777 302.553L597.988 303.447ZM662.963 430.16H626.963V432.16H662.963V430.16ZM627.858 430.714L599.778 374.314L597.988 375.206L626.068 431.606L627.858 430.714ZM597.989 374.311L569.669 430.711L571.456 431.609L599.776 375.209L597.989 374.311ZM677.91 463.53L693.99 495.45L695.776 494.55L679.696 462.63L677.91 463.53ZM694.883 494H659.123V496H694.883V494ZM660.019 494.555L644.179 462.635L642.387 463.525L658.227 495.445L660.019 494.555ZM643.283 464.08H678.803V462.08H643.283V464.08ZM814.032 303V302H813.032V303H814.032ZM845.952 303H846.952V302H845.952V303ZM845.952 495L845.283 495.744L846.952 497.244V495H845.952ZM686.352 351.48H685.352V351.926L685.683 352.224L686.352 351.48ZM686.352 303L687.021 302.257L685.352 300.754V303H686.352ZM814.032 417.96L813.362 418.703L815.032 420.206V417.96H814.032ZM814.032 304H845.952V302H814.032V304ZM844.952 303V494.52H846.952V303H844.952ZM844.952 494.52V494.76H846.952V494.52H844.952ZM844.952 494.76V495H846.952V494.76H844.952ZM846.62 494.256L687.02 350.736L685.683 352.224L845.283 495.744L846.62 494.256ZM687.352 351.48V303H685.352V351.48H687.352ZM685.682 303.743L813.362 418.703L814.701 417.217L687.021 302.257L685.682 303.743ZM815.032 417.96V303H813.032V417.96H815.032ZM942.758 303V302H941.758V303H942.758ZM1038.76 303H1039.76V302H1038.76V303ZM1038.76 335.16V336.16H1039.76V335.16H1038.76ZM974.918 335.16V334.16H973.918V335.16H974.918ZM974.918 495V496H975.918V495H974.918ZM942.758 495H941.758V496H942.758V495ZM942.758 304H1038.76V302H942.758V304ZM1037.76 303V335.16H1039.76V303H1037.76ZM1038.76 334.16H974.918V336.16H1038.76V334.16ZM973.918 335.16V495H975.918V335.16H973.918ZM974.918 494H942.758V496H974.918V494ZM943.758 495V335.16H941.758V495H943.758ZM943.758 335.16V303H941.758V335.16H943.758ZM1253.02 415.08V414.08H1252.02V415.08H1253.02ZM1284.94 415.08H1285.94V414.08H1284.94V415.08ZM1261.42 471.72L1260.72 471.007L1260.71 471.013L1261.42 471.72ZM1148.38 471.72L1149.09 471.013L1149.09 471.013L1148.38 471.72ZM1125.1 303V302H1124.1V303H1125.1ZM1157.02 303H1158.02V302H1157.02V303ZM1170.7 448.68L1171.42 447.982L1171.41 447.973L1170.7 448.68ZM1238.62 448.68L1239.33 449.387L1239.33 449.387L1238.62 448.68ZM1253.02 416.08H1284.94V414.08H1253.02V416.08ZM1283.94 415.08C1283.94 436.9 1276.36 455.601 1260.72 471.008L1262.12 472.432C1278.16 456.639 1285.94 437.42 1285.94 415.08H1283.94ZM1260.71 471.013C1245.31 486.42 1226.36 494 1204.78 494V496C1226.88 496 1246.34 488.22 1262.13 472.427L1260.71 471.013ZM1204.78 494C1183.2 494 1164.5 486.422 1149.09 471.013L1147.67 472.427C1163.46 488.218 1182.68 496 1204.78 496V494ZM1149.09 471.013C1133.68 455.606 1126.1 436.662 1126.1 415.08H1124.1C1124.1 437.178 1131.88 456.634 1147.67 472.427L1149.09 471.013ZM1126.1 415.08V303H1124.1V415.08H1126.1ZM1125.1 304H1157.02V302H1125.1V304ZM1156.02 303V415.08H1158.02V303H1156.02ZM1156.02 415.08C1156.02 428.536 1160.68 440.073 1169.99 449.387L1171.41 447.973C1162.48 439.047 1158.02 428.024 1158.02 415.08H1156.02ZM1169.99 449.378C1179.54 459.181 1191.33 463.84 1204.78 463.84V461.84C1191.84 461.84 1180.58 457.379 1171.42 447.982L1169.99 449.378ZM1204.78 463.84C1218.25 463.84 1229.79 458.929 1239.33 449.387L1237.91 447.973C1228.74 457.151 1217.71 461.84 1204.78 461.84V463.84ZM1239.33 449.387C1248.86 439.856 1254.02 428.328 1254.02 415.08H1252.02C1252.02 427.752 1247.1 438.784 1237.91 447.973L1239.33 449.387ZM1288.7 347.64H1287.7V348.053L1287.99 348.345L1288.7 347.64ZM1288.7 303L1289.4 302.292L1287.7 300.59V303H1288.7ZM1384.94 399L1384.23 399.708L1384.94 400.413L1385.64 399.707L1384.94 399ZM1480.94 303H1481.94V300.586L1480.23 302.293L1480.94 303ZM1480.94 495V496H1481.94V495H1480.94ZM1449.26 495H1448.26V496H1449.26V495ZM1449.26 380.28H1450.26V377.872L1448.55 379.572L1449.26 380.28ZM1384.94 444.36L1384.23 445.065L1384.93 445.775L1385.64 445.068L1384.94 444.36ZM1289.7 347.64V303H1287.7V347.64H1289.7ZM1287.99 303.708L1384.23 399.708L1385.64 398.292L1289.4 302.292L1287.99 303.708ZM1385.64 399.707L1481.64 303.707L1480.23 302.293L1384.23 398.293L1385.64 399.707ZM1479.94 303V495H1481.94V303H1479.94ZM1480.94 494H1449.26V496H1480.94V494ZM1450.26 495V380.28H1448.26V495H1450.26ZM1448.55 379.572L1384.23 443.652L1385.64 445.068L1449.96 380.988L1448.55 379.572ZM1385.64 443.655L1289.4 346.935L1287.99 348.345L1384.23 445.065L1385.64 443.655Z" fill="black" mask="url(#path-1-outside-1_0_1)"/>
</g>
<defs>
<filter id="filter0_dd_0_1" x="0.0803223" y="0" width="1484.85" height="503" filterUnits="userSpaceOnUse" color-interpolation-filters="sRGB">
<feFlood flood-opacity="0" result="BackgroundImageFix"/>
<feColorMatrix in="SourceAlpha" type="matrix" values="0 0 0 0 0 0 0 0 0 0 0 0 0 0 0 0 0 0 127 0" result="hardAlpha"/>
<feOffset dy="4"/>
<feGaussianBlur stdDeviation="2"/>
<feComposite in2="hardAlpha" operator="out"/>
<feColorMatrix type="matrix" values="0 0 0 0 0 0 0 0 0 0 0 0 0 0 0 0 0 0 0.25 0"/>
<feBlend mode="normal" in2="BackgroundImageFix" result="effect1_dropShadow_0_1"/>
<feColorMatrix in="SourceAlpha" type="matrix" values="0 0 0 0 0 0 0 0 0 0 0 0 0 0 0 0 0 0 127 0" result="hardAlpha"/>
<feOffset dy="4"/>
<feGaussianBlur stdDeviation="2"/>
<feComposite in2="hardAlpha" operator="out"/>
<feColorMatrix type="matrix" values="0 0 0 0 0 0 0 0 0 0 0 0 0 0 0 0 0 0 0.25 0"/>
<feBlend mode="normal" in2="effect1_dropShadow_0_1" result="effect2_dropShadow_0_1"/>
<feBlend mode="normal" in="SourceGraphic" in2="effect2_dropShadow_0_1" result="shape"/>
</filter>
<radialGradient id="paint0_diamond_0_1" cx="0" cy="0" r="1" gradientUnits="userSpaceOnUse" gradientTransform="translate(456 125) rotate(39.3482) scale(1234.96 2673.52)">
<stop stop-color="#8F00FF"/>
<stop offset="0.377981" stop-color="#5803A2" stop-opacity="0.870438"/>
<stop offset="0.415961" stop-color="#5B03A6" stop-opacity="0.877007"/>
<stop offset="0.9997" stop-color="#3A056F" stop-opacity="0.8"/>
<stop offset="0.9998" stop-color="#7900A4"/>
</radialGradient>
</defs>
</svg>
